<svg width="450" height="230" viewBox="0 0 450 230" fill="none" xmlns="http://www.w3.org/2000/svg">
<path d="M47.6738 115C47.6738 112.526 49.6787 110.521 52.1518 110.521C54.625 110.521 56.6298 112.526 56.6298 115C56.6298 117.474 54.625 119.479 52.1518 119.479C49.6787 119.479 47.6738 117.474 47.6738 115Z" fill="#0068F7"/>
<path fill-rule="evenodd" clip-rule="evenodd" d="M44.9873 79.167C25.2027 79.167 9.16406 95.2101 9.16406 115C9.16406 134.791 25.2027 150.834 44.9873 150.834C64.7719 150.834 80.8107 134.791 80.8107 115C80.8107 95.2101 64.7719 79.167 44.9873 79.167ZM29.7625 100.667C29.7625 99.1828 28.5596 97.9795 27.0757 97.9795C25.5919 97.9795 24.389 99.1828 24.389 100.667V129.334C24.389 130.818 25.5919 132.021 27.0757 132.021C28.5596 132.021 29.7625 130.818 29.7625 129.334V100.667ZM43.3048 102.35C42.2556 101.301 40.5544 101.301 39.5052 102.35C38.4561 103.4 38.4561 105.101 39.5052 106.151L43.0875 109.734C43.2414 109.888 43.4093 110.019 43.5872 110.128C42.7683 111.565 42.3005 113.228 42.3005 115C42.3005 116.773 42.7683 118.436 43.5872 119.873C43.4093 119.981 43.2414 120.113 43.0875 120.267L39.5052 123.85C38.4561 124.9 38.4561 126.601 39.5052 127.651C40.5544 128.7 42.2556 128.7 43.3048 127.651L46.8871 124.067C47.041 123.913 47.1724 123.745 47.2812 123.568C48.7175 124.387 50.3801 124.854 52.152 124.854C53.9239 124.854 55.5865 124.387 57.0231 123.568C57.1316 123.745 57.263 123.913 57.417 124.067L60.9992 127.651C62.0484 128.7 63.7496 128.7 64.7988 127.651C65.848 126.601 65.848 124.9 64.7988 123.85L61.2166 120.267C61.0626 120.113 60.8947 119.981 60.7168 119.873C61.5357 118.436 62.0035 116.773 62.0035 115C62.0035 113.228 61.5357 111.565 60.7168 110.128C60.8947 110.019 61.0626 109.888 61.2166 109.734L64.7988 106.151C65.848 105.101 65.848 103.4 64.7988 102.35C63.7496 101.301 62.0484 101.301 60.9992 102.35L57.417 105.933C57.263 106.087 57.1316 106.255 57.0231 106.433C55.5865 105.614 53.9239 105.146 52.152 105.146C50.3801 105.146 48.7175 105.614 47.2812 106.433C47.1724 106.255 47.041 106.087 46.8871 105.933L43.3048 102.35Z" fill="#0068F7"/>
<path d="M113.412 144.562C112.839 144.562 112.352 144.362 111.95 143.96C111.549 143.559 111.349 143.072 111.349 142.498V86.5124C111.349 85.8818 111.549 85.3658 111.95 84.9644C112.352 84.5631 112.839 84.3624 113.412 84.3624H151.241C151.872 84.3624 152.388 84.5631 152.789 84.9644C153.19 85.3658 153.391 85.8818 153.391 86.5124V92.1884C153.391 92.7618 153.19 93.2491 152.789 93.6504C152.388 94.0518 151.872 94.2524 151.241 94.2524H122.955V109.474H149.35C149.981 109.474 150.496 109.675 150.898 110.076C151.299 110.42 151.499 110.908 151.499 111.538V116.87C151.499 117.501 151.299 118.017 150.898 118.418C150.496 118.762 149.981 118.934 149.35 118.934H122.955V134.672H151.929C152.56 134.672 153.076 134.873 153.477 135.274C153.878 135.676 154.079 136.192 154.079 136.822V142.498C154.079 143.072 153.878 143.559 153.477 143.96C153.076 144.362 152.56 144.562 151.929 144.562H113.412ZM161.479 144.562C160.963 144.562 160.533 144.39 160.189 144.046C159.845 143.702 159.673 143.272 159.673 142.756C159.673 142.584 159.702 142.412 159.759 142.24C159.816 142.068 159.874 141.896 159.931 141.724L179.19 113.86L161.135 87.2004C160.963 86.8564 160.877 86.5124 160.877 86.1684C160.877 85.6524 161.049 85.2224 161.393 84.8784C161.737 84.5344 162.138 84.3624 162.596 84.3624H171.452C172.14 84.3624 172.684 84.5344 173.086 84.8784C173.487 85.2224 173.831 85.5951 174.117 85.9964L186.756 104.572L199.48 85.9964C199.709 85.5951 200.024 85.2224 200.426 84.8784C200.884 84.5344 201.458 84.3624 202.145 84.3624H210.485C211.001 84.3624 211.431 84.5344 211.775 84.8784C212.119 85.2224 212.291 85.6524 212.291 86.1684C212.291 86.5124 212.176 86.8564 211.947 87.2004L193.978 113.86L213.236 141.724C213.351 141.896 213.437 142.068 213.494 142.24C213.551 142.412 213.58 142.584 213.58 142.756C213.58 143.272 213.379 143.702 212.978 144.046C212.634 144.39 212.233 144.562 211.775 144.562H202.661C201.973 144.562 201.429 144.39 201.028 144.046C200.626 143.702 200.311 143.358 200.082 143.014L186.326 123.578L172.828 143.014C172.598 143.358 172.283 143.702 171.882 144.046C171.48 144.39 170.907 144.562 170.162 144.562H161.479ZM242.704 145.422C237.373 145.422 232.845 144.505 229.119 142.67C225.451 140.778 222.643 138.112 220.694 134.672C218.745 131.175 217.656 126.99 217.427 122.116C217.37 119.766 217.341 117.243 217.341 114.548C217.341 111.854 217.37 109.274 217.427 106.808C217.656 101.992 218.745 97.8358 220.694 94.3384C222.7 90.8411 225.537 88.1751 229.205 86.3404C232.931 84.4484 237.431 83.5024 242.704 83.5024C246.601 83.5024 250.098 84.0184 253.193 85.0504C256.288 86.0824 258.925 87.5158 261.103 89.3504C263.281 91.1278 264.971 93.2204 266.175 95.6284C267.379 98.0364 268.009 100.645 268.067 103.454C268.124 103.97 267.952 104.4 267.551 104.744C267.207 105.088 266.777 105.26 266.261 105.26H258.093C257.463 105.26 256.947 105.117 256.546 104.83C256.145 104.486 255.858 103.942 255.686 103.196C254.769 99.4124 253.193 96.8324 250.957 95.4564C248.722 94.0804 245.942 93.3924 242.618 93.3924C238.778 93.3924 235.711 94.4818 233.418 96.6604C231.126 98.7818 229.893 102.308 229.721 107.238C229.549 111.94 229.549 116.756 229.721 121.686C229.893 126.617 231.126 130.172 233.418 132.35C235.711 134.472 238.778 135.532 242.618 135.532C245.942 135.532 248.722 134.844 250.957 133.468C253.193 132.035 254.769 129.455 255.686 125.728C255.858 124.926 256.145 124.381 256.546 124.094C256.947 123.808 257.463 123.664 258.093 123.664H266.261C266.777 123.664 267.207 123.836 267.551 124.18C267.952 124.524 268.124 124.954 268.067 125.47C268.009 128.28 267.379 130.888 266.175 133.296C264.971 135.704 263.281 137.826 261.103 139.66C258.925 141.438 256.288 142.842 253.193 143.874C250.098 144.906 246.601 145.422 242.704 145.422ZM273.894 144.562C273.434 144.562 273.005 144.39 272.604 144.046C272.26 143.702 272.088 143.272 272.088 142.756C272.088 142.527 272.145 142.269 272.26 141.982L292.981 86.5124C293.152 85.9391 293.467 85.4518 293.926 85.0504C294.442 84.5918 295.13 84.3624 295.99 84.3624H305.361C306.221 84.3624 306.879 84.5918 307.339 85.0504C307.798 85.4518 308.142 85.9391 308.37 86.5124L329.09 141.982C329.147 142.269 329.176 142.527 329.176 142.756C329.176 143.272 329.004 143.702 328.661 144.046C328.317 144.39 327.916 144.562 327.457 144.562H319.977C319.174 144.562 318.572 144.39 318.171 144.046C317.828 143.645 317.599 143.272 317.484 142.928L313.443 132.436H287.908L283.867 142.928C283.752 143.272 283.494 143.645 283.093 144.046C282.749 144.39 282.177 144.562 281.374 144.562H273.894ZM290.917 122.546H310.434L300.632 95.9724L290.917 122.546ZM357.256 145.422C351.925 145.422 347.454 144.648 343.843 143.1C340.289 141.495 337.567 139.431 335.676 136.908C333.841 134.328 332.868 131.634 332.752 128.824C332.752 128.308 332.924 127.878 333.268 127.534C333.612 127.19 334.042 127.018 334.558 127.018H342.21C342.954 127.018 343.499 127.19 343.843 127.534C344.244 127.821 344.588 128.194 344.875 128.652C345.219 129.742 345.877 130.831 346.852 131.92C347.828 132.952 349.144 133.812 350.807 134.5C352.527 135.188 354.676 135.532 357.256 135.532C361.382 135.532 364.448 134.844 366.455 133.468C368.518 132.092 369.55 130.229 369.55 127.878C369.55 126.216 369.005 124.897 367.917 123.922C366.828 122.89 365.136 121.973 362.844 121.17C360.609 120.31 357.629 119.422 353.903 118.504C349.604 117.472 345.993 116.24 343.07 114.806C340.203 113.316 338.027 111.452 336.535 109.216C335.103 106.98 334.386 104.142 334.386 100.702C334.386 97.3771 335.275 94.4244 337.051 91.8444C338.886 89.2644 341.466 87.2291 344.789 85.7384C348.172 84.2478 352.183 83.5024 356.826 83.5024C360.552 83.5024 363.846 84.0184 366.713 85.0504C369.58 86.0251 371.957 87.3438 373.849 89.0064C375.74 90.6118 377.172 92.3604 378.148 94.2524C379.179 96.0871 379.725 97.8931 379.781 99.6704C379.781 100.129 379.609 100.559 379.265 100.96C378.978 101.304 378.548 101.476 377.976 101.476H369.98C369.521 101.476 369.064 101.362 368.604 101.132C368.145 100.903 367.774 100.473 367.487 99.8424C367.143 98.0651 366.025 96.5458 364.134 95.2844C362.242 94.0231 359.805 93.3924 356.826 93.3924C353.731 93.3924 351.237 93.9658 349.346 95.1124C347.454 96.2591 346.509 98.0364 346.509 100.444C346.509 102.05 346.968 103.397 347.884 104.486C348.859 105.518 350.378 106.436 352.441 107.238C354.561 108.041 357.342 108.901 360.781 109.818C365.652 110.908 369.636 112.169 372.731 113.602C375.826 115.036 378.091 116.87 379.523 119.106C380.955 121.285 381.673 124.066 381.673 127.448C381.673 131.232 380.641 134.472 378.578 137.166C376.571 139.804 373.733 141.839 370.066 143.272C366.399 144.706 362.127 145.422 357.256 145.422ZM393.588 144.562C393.016 144.562 392.53 144.39 392.127 144.046C391.727 143.645 391.525 143.129 391.525 142.498V86.5124C391.525 85.8818 391.727 85.3658 392.127 84.9644C392.53 84.5631 393.016 84.3624 393.588 84.3624H401.412C402.044 84.3624 402.53 84.5631 402.874 84.9644C403.277 85.3658 403.476 85.8818 403.476 86.5124V108.7H428.839V86.5124C428.839 85.8818 429.04 85.3658 429.44 84.9644C429.843 84.5631 430.33 84.3624 430.902 84.3624H438.64C439.271 84.3624 439.787 84.5631 440.187 84.9644C440.59 85.3658 440.789 85.8818 440.789 86.5124V142.498C440.789 143.072 440.59 143.559 440.187 143.96C439.787 144.362 439.271 144.562 438.64 144.562H430.902C430.33 144.562 429.843 144.362 429.44 143.96C429.04 143.559 428.839 143.072 428.839 142.498V119.45H403.476V142.498C403.476 143.072 403.277 143.559 402.874 143.96C402.53 144.362 402.044 144.562 401.412 144.562H393.588Z" fill="#1C274C"/>
</svg>
