<svg width="165" height="86" viewBox="0 0 165 86" fill="none" xmlns="http://www.w3.org/2000/svg">
<path d="M79.0654 43.3725C76.9657 43.3725 75.3459 42.8378 74.2001 41.7624C73.0542 40.6691 72.4843 39.2212 72.4843 37.419C72.4843 35.6107 72.8623 33.9826 73.6242 32.5228C74.4101 31.0449 75.4899 29.8974 76.8637 29.0744C78.2375 28.2273 79.7793 27.8068 81.4951 27.8068C83.4988 27.8068 85.0286 28.2453 86.0785 29.1285C87.1283 30.0116 87.6503 31.2311 87.6503 32.7811C87.6503 33.0514 87.6443 33.2617 87.6203 33.4179H83.3609L83.3849 33.0154C83.3849 32.4987 83.1989 32.0662 82.8149 31.7177C82.431 31.3753 81.8971 31.2011 81.2131 31.2011C80.2593 31.2011 79.4494 31.5075 78.7775 32.1202C78.1296 32.715 77.6436 33.484 77.3197 34.4212C77.0137 35.3644 76.8637 36.3136 76.8637 37.2748C76.8637 38.1339 77.0797 38.8067 77.5176 39.2873C77.9796 39.7499 78.6155 39.9782 79.4374 39.9782C80.1813 39.9782 80.8232 39.7739 81.3571 39.3714C81.8911 38.9689 82.269 38.4222 82.497 37.7313H86.7924C86.3365 39.5336 85.4186 40.9274 84.0448 41.9066C82.6709 42.8859 81.0092 43.3725 79.0654 43.3725Z" fill="#130E21"/>
<path d="M98.8628 28.0351C99.2227 28.0351 99.5887 28.0771 99.9486 28.1492L99.0907 32.0962C98.8628 32.0361 98.5268 32.0061 98.0889 32.0061C96.925 32.0061 95.9892 32.3425 95.2873 33.0154C94.5973 33.6642 94.0814 34.7996 93.7395 36.4097L92.3357 43.03H88.1002L90.5059 31.6877C90.8119 30.1738 90.9918 28.9963 91.0518 28.1492H94.8853C94.8493 28.9542 94.7533 29.7653 94.5973 30.5703C95.1913 29.7052 95.8512 29.0744 96.5711 28.6719C97.315 28.2453 98.0829 28.0351 98.8628 28.0351Z" fill="#130E21"/>
<path d="M103.374 36.7281V37.1306C103.374 38.1278 103.614 38.9028 104.088 39.4615C104.586 39.9962 105.3 40.2666 106.236 40.2666C107.556 40.2666 108.467 39.7379 108.983 38.6805H113.279C112.763 40.1224 111.887 41.2638 110.645 42.1049C109.403 42.9519 107.82 43.3725 105.894 43.3725C104.52 43.3725 103.326 43.0961 102.318 42.5374C101.304 41.9847 100.531 41.2338 99.9966 40.2966C99.4807 39.3534 99.2227 38.3081 99.2227 37.1546C99.2227 36.2174 99.3307 35.3523 99.5407 34.5653C100.057 32.4987 101.058 30.8587 102.546 29.6451C104.034 28.4196 105.828 27.8068 107.928 27.8068C109.853 27.8068 111.407 28.3595 112.589 29.4769C113.771 30.5883 114.365 32.0962 114.365 33.9946C114.365 34.7996 114.233 35.7068 113.963 36.7281H103.374ZM107.556 30.9428C106.656 30.9428 105.894 31.2131 105.264 31.7478C104.634 32.2825 104.166 33.0694 103.86 34.1088H110.069C110.111 33.8745 110.129 33.6402 110.129 33.3879C110.129 32.6609 109.907 32.0722 109.469 31.6336C109.031 31.171 108.395 30.9428 107.556 30.9428Z" fill="#130E21"/>
<path d="M133.928 22.3098L130.293 39.4856C130.029 40.7712 129.891 41.9547 129.891 43.03H126.057C126.057 42.2611 126.135 41.4621 126.285 40.639C124.971 42.4593 123.183 43.3725 120.934 43.3725C119.944 43.3725 119.038 43.1502 118.216 42.7116C117.412 42.249 116.776 41.6002 116.296 40.7532C115.822 39.8941 115.583 38.8728 115.583 37.7073C115.583 35.881 115.942 34.2109 116.668 32.697C117.412 31.1831 118.426 29.9935 119.704 29.1285C120.982 28.2453 122.416 27.8068 123.999 27.8068C125.979 27.8068 127.347 28.4676 128.091 29.7893L129.663 22.3098H133.928ZM122.536 40.0082C123.585 40.0082 124.485 39.6237 125.229 38.8548C125.973 38.0678 126.489 36.9864 126.771 35.6046C126.867 35.0279 126.915 34.4932 126.915 33.9946C126.915 33.1115 126.705 32.4206 126.285 31.922C125.865 31.4234 125.217 31.171 124.341 31.171C123.465 31.171 122.692 31.4714 122.02 32.0662C121.372 32.6429 120.868 33.3999 120.508 34.337C120.16 35.2562 119.992 36.2054 119.992 37.1846C119.992 38.0317 120.22 38.7106 120.676 39.2272C121.132 39.7499 121.756 40.0082 122.536 40.0082Z" fill="#130E21"/>
<path d="M135.434 28.1492H139.699L136.55 43.03H132.284L135.434 28.1492ZM138.553 26.1667C137.828 26.1667 137.234 25.9384 136.778 25.4758C136.322 24.9952 136.094 24.4125 136.094 23.7216C136.094 23.0488 136.322 22.4841 136.778 22.0215C137.234 21.5649 137.828 21.3306 138.553 21.3306C139.261 21.3306 139.843 21.5649 140.299 22.0215C140.755 22.4841 140.983 23.0488 140.983 23.7216C140.983 24.4125 140.755 24.9952 140.299 25.4758C139.843 25.9384 139.261 26.1667 138.553 26.1667Z" fill="#130E21"/>
<path d="M146.682 37.3889C146.592 37.8275 146.544 38.1819 146.544 38.4522C146.544 38.8548 146.664 39.1611 146.916 39.3714C147.18 39.5817 147.564 39.6898 148.056 39.6898C148.44 39.6898 148.854 39.6418 149.292 39.5456L148.602 42.8859C148.164 43 147.786 43.0781 147.456 43.1141C147.15 43.1742 146.754 43.1982 146.256 43.1982C145.015 43.1982 144.013 42.8738 143.251 42.219C142.507 41.5522 142.135 40.651 142.135 39.5156C142.135 38.9989 142.201 38.4162 142.333 37.7614L143.623 31.6336H141.391L142.105 28.1492H144.367L145.255 23.9499H149.52L148.632 28.1492H151.722L150.978 31.6336H147.888L146.682 37.3889Z" fill="#130E21"/>
<path d="M22.439 21.7151C20.2613 22.4961 18.2816 23.7577 16.6498 25.4038C15.018 27.0498 13.7642 29.0383 12.9903 31.2311C12.2164 33.4179 11.9345 35.7548 12.1684 38.0738C12.4024 40.3867 13.1463 42.6155 14.3401 44.604C15.54 46.5986 17.1598 48.2927 19.0915 49.5783C21.0232 50.8579 23.2129 51.693 25.4986 52.0174C27.7903 52.3478 30.124 52.1556 32.3317 51.4647C34.5394 50.7738 36.5671 49.5963 38.2709 48.0224L35.1573 44.6221C33.9575 45.7395 32.5237 46.5685 30.9639 47.0551C29.4101 47.5417 27.7603 47.6739 26.1465 47.4456C24.5328 47.2113 22.985 46.6226 21.6232 45.7214C20.2613 44.8143 19.1215 43.6188 18.2756 42.213C17.4297 40.8132 16.9078 39.2393 16.7398 37.6052C16.5778 35.9711 16.7758 34.325 17.3217 32.7751C17.8677 31.2311 18.7495 29.8253 19.9014 28.6659C21.0532 27.5064 22.451 26.6173 23.9868 26.0646L22.439 21.7151Z" fill="#FAD634"/>
<path d="M27.3644 43.6488C25.2167 43.6488 23.5489 43.1021 22.3611 42.0027C21.1672 40.9033 20.5733 39.4315 20.5733 37.5872C20.5733 35.7248 20.9633 34.0487 21.7431 32.5588C22.541 31.0509 23.6449 29.8734 25.0487 29.0323C26.4765 28.1672 28.0843 27.7347 29.8781 27.7347C32.0258 27.7347 33.6935 28.2874 34.8814 29.3808C36.0692 30.4802 36.6631 31.952 36.6631 33.7964C36.6631 35.6587 36.2672 37.3469 35.4693 38.8548C34.6834 40.3446 33.5856 41.5221 32.1577 42.3872C30.7539 43.2283 29.1582 43.6488 27.3644 43.6488ZM27.7423 40.1764C28.6962 40.1764 29.5181 39.876 30.202 39.2693C30.8799 38.6385 31.3899 37.8575 31.7198 36.9143C32.0558 35.9531 32.2177 34.9919 32.2177 34.0307C32.2177 33.1656 31.9718 32.4807 31.4858 31.9701C31.0179 31.4594 30.364 31.2071 29.5241 31.2071C28.5522 31.2071 27.7243 31.5195 27.0404 32.1503C26.3565 32.757 25.8526 33.538 25.5166 34.4992C25.1867 35.4424 25.0187 36.3916 25.0187 37.3529C25.0187 38.236 25.2527 38.9329 25.7206 39.4435C26.2125 39.9361 26.8845 40.1764 27.7423 40.1764Z" fill="#130E21"/>
<path d="M49.2795 27.7347C50.6833 27.7347 51.7871 28.1072 52.585 28.8521C53.3889 29.5971 53.7849 30.6183 53.7849 31.91C53.7849 32.4987 53.7369 33.0694 53.6409 33.6161L51.5592 43.2944H47.2337L49.0755 34.5894C49.1535 34.1989 49.1895 33.8024 49.1895 33.4119C49.1895 32.727 49.0095 32.2164 48.6375 31.8859C48.2836 31.5315 47.7797 31.3513 47.1137 31.3513C46.2199 31.3513 45.428 31.6697 44.7441 32.2945C44.0842 32.9253 43.6342 33.7783 43.4002 34.8537L41.6125 43.2944H37.2811L39.7407 31.7057C40.0527 30.1558 40.2387 28.9542 40.2987 28.0891H44.2161C44.1801 28.9122 44.0842 29.7172 43.9282 30.4982C45.23 28.6599 47.0178 27.7347 49.2795 27.7347Z" fill="#130E21"/>
<path d="M59.5861 36.8542V37.2688C59.5861 38.284 59.826 39.083 60.318 39.6478C60.8219 40.2005 61.5538 40.4708 62.5077 40.4708C63.8575 40.4708 64.7934 39.9361 65.3213 38.8548H69.7067C69.1788 40.3266 68.2849 41.4921 67.0191 42.3572C65.7472 43.2163 64.1274 43.6488 62.1597 43.6488C60.7559 43.6488 59.5381 43.3665 58.5002 42.7957C57.4683 42.231 56.6764 41.4621 56.1305 40.5008C55.6026 39.5396 55.3386 38.4703 55.3386 37.2988C55.3386 36.3376 55.4466 35.4545 55.6626 34.6494C56.1905 32.5288 57.2164 30.8526 58.7342 29.6151C60.258 28.3655 62.0937 27.7347 64.2354 27.7347C66.2092 27.7347 67.799 28.3054 69.0048 29.4409C70.2166 30.5763 70.8225 32.1202 70.8225 34.0607C70.8225 34.8837 70.6846 35.8149 70.4086 36.8542H59.5861ZM63.8575 30.9428C62.9396 30.9428 62.1597 31.2191 61.5178 31.7658C60.8699 32.3125 60.3959 33.1175 60.084 34.1748H66.4311C66.4671 33.9405 66.4911 33.6942 66.4911 33.4419C66.4911 32.697 66.2632 32.0962 65.8192 31.6456C65.3693 31.177 64.7154 30.9428 63.8575 30.9428Z" fill="#130E21"/>
</svg>
