<svg width="140" height="24" viewBox="0 0 140 24" fill="none" xmlns="http://www.w3.org/2000/svg">
<path d="M30.9351 0.4539L24.366 0.438354C24.1564 0.438354 23.9623 0.51608 23.8147 0.663758L8.82088 15.6726C8.67335 15.8202 8.5957 16.0145 8.5957 16.2244L8.61123 22.8C8.61123 23.2275 8.96065 23.5695 9.37995 23.5695L15.949 23.585C16.1586 23.585 16.3527 23.5073 16.5003 23.3596L31.4941 8.35081C31.6417 8.20313 31.7193 8.00882 31.7193 7.79896L31.7038 1.22338C31.7038 0.795892 31.3544 0.4539 30.9351 0.4539Z" fill="#080B1A"/>
<path d="M46.3179 0.430585L39.7488 0.415039C39.5392 0.415039 39.3451 0.492765 39.1975 0.640443L24.2037 15.6492C24.0562 15.7969 23.9785 15.9912 23.9785 16.2011L23.994 22.7767C23.994 23.2042 24.3435 23.5462 24.7628 23.5462L31.3318 23.5617C31.5414 23.5617 31.7356 23.484 31.8831 23.3363L46.8769 8.3275C47.0245 8.17982 47.1021 7.9855 47.1021 7.77565L47.0866 1.20007C47.0866 0.772577 46.7372 0.430585 46.3179 0.430585Z" fill="#080B1A"/>
<path d="M43.0254 6.2833C43.9945 6.2833 44.7802 5.49685 44.7802 4.52671C44.7802 3.55657 43.9945 2.77011 43.0254 2.77011C42.0562 2.77011 41.2705 3.55657 41.2705 4.52671C41.2705 5.49685 42.0562 6.2833 43.0254 6.2833Z" fill="#FFFF00"/>
<path d="M15.561 0.461682L8.99196 0.446136C8.78231 0.446136 8.58819 0.523862 8.44066 0.67154L1.07186 8.02437C0.924328 8.17205 0.84668 8.36637 0.84668 8.57623L0.862209 15.1518C0.862209 15.5793 1.21163 15.9213 1.63093 15.9213L8.19995 15.9368C8.4096 15.9368 8.60372 15.8591 8.75125 15.7114L16.1278 8.35859C16.2754 8.21091 16.353 8.0166 16.353 7.80674L16.3375 1.23116C16.3375 0.803674 15.9881 0.461682 15.5688 0.461682H15.561Z" fill="#F0F424"/>
<path d="M132.013 9.50999H133.963L134.473 12.6V18H132.523V12.225L132.013 9.50999ZM138.778 9.44999V11.16C138.558 11.1 138.318 11.055 138.058 11.025C137.798 10.995 137.553 10.98 137.323 10.98C136.773 10.98 136.283 11.1 135.853 11.34C135.423 11.58 135.083 11.94 134.833 12.42C134.593 12.89 134.473 13.47 134.473 14.16L134.023 13.605C134.063 13.005 134.163 12.445 134.323 11.925C134.493 11.395 134.723 10.935 135.013 10.545C135.313 10.155 135.678 9.84999 136.108 9.62999C136.538 9.40999 137.038 9.29999 137.608 9.29999C137.808 9.29999 138.013 9.31499 138.223 9.34499C138.433 9.36499 138.618 9.39999 138.778 9.44999Z" fill="white"/>
<path d="M128.531 18L128.201 14.85L128.591 13.755L128.201 12.675L128.531 9.50999H130.541L130.091 13.755L130.541 18H128.531ZM129.131 13.755C128.941 14.645 128.626 15.425 128.186 16.095C127.746 16.765 127.201 17.285 126.551 17.655C125.911 18.025 125.196 18.21 124.406 18.21C123.576 18.21 122.841 18.025 122.201 17.655C121.561 17.275 121.061 16.75 120.701 16.08C120.341 15.41 120.161 14.635 120.161 13.755C120.161 12.865 120.341 12.09 120.701 11.43C121.061 10.76 121.561 10.24 122.201 9.86999C122.841 9.48999 123.576 9.29999 124.406 9.29999C125.196 9.29999 125.911 9.48499 126.551 9.85499C127.201 10.225 127.746 10.745 128.186 11.415C128.636 12.075 128.951 12.855 129.131 13.755ZM122.141 13.755C122.141 14.325 122.256 14.83 122.486 15.27C122.726 15.7 123.051 16.04 123.461 16.29C123.871 16.53 124.341 16.65 124.871 16.65C125.411 16.65 125.911 16.53 126.371 16.29C126.831 16.04 127.236 15.7 127.586 15.27C127.946 14.83 128.231 14.325 128.441 13.755C128.231 13.185 127.946 12.685 127.586 12.255C127.236 11.815 126.831 11.475 126.371 11.235C125.911 10.985 125.411 10.86 124.871 10.86C124.341 10.86 123.871 10.985 123.461 11.235C123.051 11.475 122.726 11.815 122.486 12.255C122.256 12.685 122.141 13.185 122.141 13.755Z" fill="white"/>
<path d="M112.474 6.75C113.754 6.75 114.874 6.985 115.834 7.455C116.804 7.925 117.559 8.585 118.099 9.435C118.639 10.275 118.909 11.255 118.909 12.375C118.909 13.495 118.639 14.48 118.099 15.33C117.559 16.17 116.804 16.825 115.834 17.295C114.874 17.765 113.754 18 112.474 18H107.389V6.75H112.474ZM109.369 17.31L108.274 16.26H112.609C113.469 16.26 114.219 16.1 114.859 15.78C115.509 15.45 116.009 14.995 116.359 14.415C116.719 13.825 116.899 13.145 116.899 12.375C116.899 11.595 116.719 10.915 116.359 10.335C116.009 9.755 115.509 9.305 114.859 8.985C114.219 8.655 113.469 8.49 112.609 8.49H108.274L109.369 7.44V17.31Z" fill="white"/>
<path d="M101.238 18.21C100.248 18.21 99.368 18.025 98.598 17.655C97.828 17.275 97.223 16.75 96.783 16.08C96.343 15.41 96.123 14.63 96.123 13.74C96.123 12.86 96.328 12.09 96.738 11.43C97.158 10.76 97.733 10.24 98.463 9.86999C99.203 9.48999 100.048 9.29999 100.998 9.29999C101.948 9.29999 102.768 9.51499 103.458 9.94499C104.158 10.365 104.698 10.96 105.078 11.73C105.458 12.5 105.648 13.405 105.648 14.445H97.653V12.96H104.673L103.698 13.515C103.668 12.955 103.533 12.475 103.293 12.075C103.063 11.675 102.748 11.37 102.348 11.16C101.958 10.94 101.493 10.83 100.953 10.83C100.383 10.83 99.883 10.945 99.453 11.175C99.033 11.405 98.703 11.73 98.463 12.15C98.223 12.56 98.103 13.05 98.103 13.62C98.103 14.25 98.243 14.795 98.523 15.255C98.813 15.715 99.218 16.07 99.738 16.32C100.268 16.56 100.893 16.68 101.613 16.68C102.263 16.68 102.928 16.58 103.608 16.38C104.288 16.17 104.888 15.88 105.408 15.51V16.92C104.888 17.32 104.253 17.635 103.503 17.865C102.763 18.095 102.008 18.21 101.238 18.21Z" fill="white"/>
<path d="M92.6236 15.915V14.415L92.6986 14.145V12.51L92.6236 12.21V9.50999H94.5736V15.735C94.5736 16.825 94.3436 17.735 93.8836 18.465C93.4236 19.205 92.7936 19.76 91.9936 20.13C91.1936 20.5 90.2736 20.685 89.2336 20.685C88.4736 20.685 87.7736 20.585 87.1336 20.385C86.4936 20.185 85.8736 19.88 85.2736 19.47V17.85C85.8836 18.33 86.5136 18.665 87.1636 18.855C87.8136 19.055 88.4636 19.155 89.1136 19.155C90.2536 19.155 91.1236 18.875 91.7236 18.315C92.3236 17.755 92.6236 16.955 92.6236 15.915ZM88.5436 17.34C87.7636 17.34 87.0636 17.175 86.4436 16.845C85.8236 16.505 85.3336 16.035 84.9736 15.435C84.6136 14.835 84.4336 14.13 84.4336 13.32C84.4336 12.51 84.6136 11.805 84.9736 11.205C85.3336 10.605 85.8236 10.14 86.4436 9.80999C87.0636 9.46999 87.7636 9.29999 88.5436 9.29999C89.1236 9.29999 89.6586 9.38999 90.1486 9.56999C90.6486 9.74999 91.0936 9.98999 91.4836 10.29C91.8836 10.58 92.2186 10.905 92.4886 11.265C92.7686 11.615 92.9836 11.975 93.1336 12.345C93.2836 12.705 93.3586 13.035 93.3586 13.335C93.3586 13.725 93.2436 14.155 93.0136 14.625C92.7836 15.085 92.4536 15.52 92.0236 15.93C91.6036 16.34 91.0986 16.68 90.5086 16.95C89.9186 17.21 89.2636 17.34 88.5436 17.34ZM89.1436 15.9C89.8536 15.9 90.5036 15.695 91.0936 15.285C91.6936 14.875 92.2286 14.22 92.6986 13.32C92.2286 12.4 91.6936 11.74 91.0936 11.34C90.5036 10.93 89.8536 10.725 89.1436 10.725C88.5636 10.725 88.0686 10.835 87.6586 11.055C87.2486 11.275 86.9336 11.58 86.7136 11.97C86.5036 12.36 86.3986 12.81 86.3986 13.32C86.3986 13.82 86.5036 14.265 86.7136 14.655C86.9336 15.045 87.2486 15.35 87.6586 15.57C88.0686 15.79 88.5636 15.9 89.1436 15.9Z" fill="white"/>
<path d="M73.3604 9.50999H75.3104L75.8204 12.57V18H73.8704V12.285L73.3604 9.50999ZM79.1954 9.29999C79.9954 9.29999 80.6754 9.45999 81.2354 9.77999C81.7954 10.1 82.2204 10.56 82.5104 11.16C82.8104 11.75 82.9604 12.465 82.9604 13.305V18H81.0104V13.62C81.0104 12.73 80.8004 12.06 80.3804 11.61C79.9704 11.15 79.3654 10.92 78.5654 10.92C78.0154 10.92 77.5304 11.045 77.1104 11.295C76.7004 11.535 76.3804 11.875 76.1504 12.315C75.9304 12.755 75.8204 13.27 75.8204 13.86L75.1304 13.485C75.2204 12.605 75.4504 11.855 75.8204 11.235C76.1904 10.615 76.6654 10.14 77.2454 9.80999C77.8254 9.46999 78.4754 9.29999 79.1954 9.29999Z" fill="white"/>
<path d="M67.7517 18.21C66.7617 18.21 65.8817 18.025 65.1117 17.655C64.3417 17.275 63.7367 16.75 63.2967 16.08C62.8567 15.41 62.6367 14.63 62.6367 13.74C62.6367 12.86 62.8417 12.09 63.2517 11.43C63.6717 10.76 64.2467 10.24 64.9767 9.86999C65.7167 9.48999 66.5617 9.29999 67.5117 9.29999C68.4617 9.29999 69.2817 9.51499 69.9717 9.94499C70.6717 10.365 71.2117 10.96 71.5917 11.73C71.9717 12.5 72.1617 13.405 72.1617 14.445H64.1667V12.96H71.1867L70.2117 13.515C70.1817 12.955 70.0467 12.475 69.8067 12.075C69.5767 11.675 69.2617 11.37 68.8617 11.16C68.4717 10.94 68.0067 10.83 67.4667 10.83C66.8967 10.83 66.3967 10.945 65.9667 11.175C65.5467 11.405 65.2167 11.73 64.9767 12.15C64.7367 12.56 64.6167 13.05 64.6167 13.62C64.6167 14.25 64.7567 14.795 65.0367 15.255C65.3267 15.715 65.7317 16.07 66.2517 16.32C66.7817 16.56 67.4067 16.68 68.1267 16.68C68.7767 16.68 69.4417 16.58 70.1217 16.38C70.8017 16.17 71.4017 15.88 71.9217 15.51V16.92C71.4017 17.32 70.7667 17.635 70.0167 17.865C69.2767 18.095 68.5217 18.21 67.7517 18.21Z" fill="white"/>
<path d="M57.9186 7.665H59.8986V18H57.9186V7.665ZM53.2686 6.75H64.5486V8.49H53.2686V6.75Z" fill="white"/>
</svg>
