<svg width="56" height="56" viewBox="0 0 56 56" fill="none" xmlns="http://www.w3.org/2000/svg">
<g clip-path="url(#clip0_44_4717)">
<g clip-path="url(#clip1_44_4717)">
<g clip-path="url(#clip2_44_4717)">
<path d="M40 0H16C7.16344 0 0 7.16344 0 16V40C0 48.8366 7.16344 56 16 56H40C48.8366 56 56 48.8366 56 40V16C56 7.16344 48.8366 0 40 0Z" fill="#F9F9F9"/>
<path d="M23.712 41.3332C21.4651 40.3304 19.6092 38.7678 18.3893 36.6758" stroke="#080B1A" stroke-width="1.33333" stroke-linecap="round"/>
<path d="M31.7669 14.9147C34.0028 14.2785 36.311 14.8842 37.9222 16.5297" stroke="#080B1A" stroke-width="1.33333" stroke-linecap="round"/>
<path d="M25.8882 24.7002C26.1664 25.1774 26.7787 25.3386 27.2558 25.0603C27.7328 24.7822 27.894 24.1698 27.6159 23.6927L25.8882 24.7002ZM22.0503 28.177C22.3286 28.654 22.9408 28.8152 23.4179 28.537C23.895 28.2588 24.0562 27.6466 23.778 27.1694L22.0503 28.177ZM33.3962 25.5322L33.8924 26.4004C34.124 26.268 34.2931 26.0487 34.3622 25.7911C34.4312 25.5334 34.3944 25.2588 34.26 25.0284L33.3962 25.5322ZM34.6866 19.6719C34.9647 20.149 35.577 20.3102 36.0542 20.032C36.5312 19.7538 36.6924 19.1415 36.4142 18.6644L34.6866 19.6719ZM30.3782 32.4C30.6564 32.8771 31.2687 33.0383 31.7458 32.7602C32.223 32.4819 32.3842 31.8696 32.1059 31.3926L30.3782 32.4ZM39.1288 23.3195C38.8506 22.8424 38.2383 22.6812 37.7612 22.9594C37.2842 23.2376 37.123 23.8499 37.4011 24.327L39.1288 23.3195ZM23.9822 38.9071C24.4668 39.1719 25.0743 38.9936 25.3391 38.509C25.6039 38.0243 25.4258 37.4168 24.9411 37.152L23.9822 38.9071ZM30.5179 38.0604C29.9718 38.1423 29.5954 38.6515 29.6772 39.1976C29.7591 39.7439 30.2682 40.1203 30.8144 40.0384L30.5179 38.0604ZM17.8432 24.0236C18.6882 23.5407 19.5199 23.8375 19.8052 24.327L21.533 23.3195C20.5784 21.6827 18.4355 21.3815 16.8508 22.2872L17.8432 24.0236ZM16.8508 22.2872C15.2631 23.1946 14.4467 25.1959 15.4062 26.8412L17.1338 25.8338C16.8534 25.3528 17.0014 24.5047 17.8432 24.0236L16.8508 22.2872ZM21.3982 17.0004L22.5207 18.9254L24.2484 17.9179L23.1259 15.993L21.3982 17.0004ZM22.5207 18.9254L25.8882 24.7002L27.6159 23.6927L24.2484 17.9179L22.5207 18.9254ZM23.778 27.1694L21.533 23.3195L19.8052 24.327L22.0503 28.177L23.778 27.1694ZM21.533 23.3195L18.7267 18.5071L16.999 19.5147L19.8052 24.327L21.533 23.3195ZM19.4362 16.6971C20.281 16.2142 21.1127 16.5111 21.3982 17.0004L23.1259 15.993C22.1714 14.3562 20.0284 14.055 18.4438 14.9607L19.4362 16.6971ZM18.4438 14.9607C16.8559 15.8682 16.0395 17.8694 16.999 19.5147L18.7267 18.5071C18.4463 18.0263 18.5943 17.1782 19.4362 16.6971L18.4438 14.9607ZM26.9198 16.4112L30.2874 22.186L32.0151 21.1786L28.6475 15.4038L26.9198 16.4112ZM30.2874 22.186L32.5324 26.0359L34.26 25.0284L32.0151 21.1786L30.2874 22.186ZM24.9578 16.1079C25.8027 15.625 26.6344 15.9218 26.9198 16.4112L28.6475 15.4038C27.693 13.767 25.55 13.4658 23.9654 14.3714L24.9578 16.1079ZM23.9654 14.3714C22.3776 15.2788 21.5612 17.28 22.5207 18.9254L24.2484 17.9179C23.9679 17.437 24.116 16.589 24.9578 16.1079L23.9654 14.3714ZM32.7244 19.3684C33.5694 18.8856 34.4011 19.1824 34.6866 19.6719L36.4142 18.6644C35.4598 17.0276 33.3168 16.7264 31.732 17.632L32.7244 19.3684ZM31.732 17.632C30.1443 18.5395 29.3279 20.5407 30.2874 22.186L32.0151 21.1786C31.7346 20.6976 31.8827 19.8496 32.7244 19.3684L31.732 17.632ZM15.4062 26.8412L20.4574 35.5035L22.1851 34.4959L17.1338 25.8338L15.4062 26.8412ZM38.054 25.4467C40.1943 29.117 38.5996 34.239 34.1134 36.8028L35.1058 38.5394C40.338 35.5491 42.6011 29.2739 39.7818 24.4392L38.054 25.4467ZM32.1059 31.3926C31.2055 29.8484 31.8358 27.5758 33.8924 26.4004L32.9 24.6639C30.0975 26.2658 28.7988 29.6916 30.3782 32.4L32.1059 31.3926ZM37.4011 24.327L38.054 25.4467L39.7818 24.4392L39.1288 23.3195L37.4011 24.327ZM24.9411 37.152C23.8043 36.5308 22.8506 35.6371 22.1851 34.4959L20.4574 35.5035C21.3175 36.9783 22.5458 38.1223 23.9822 38.9071L24.9411 37.152ZM34.1134 36.8028C32.9539 37.4655 31.7306 37.8787 30.5179 38.0604L30.8144 40.0384C32.2712 39.82 33.7307 39.3252 35.1058 38.5394L34.1134 36.8028Z" fill="#080B1A"/>
</g>
</g>
</g>
<defs>
<clipPath id="clip0_44_4717">
<rect width="56" height="56" fill="white"/>
</clipPath>
<clipPath id="clip1_44_4717">
<rect width="56" height="56" fill="white"/>
</clipPath>
<clipPath id="clip2_44_4717">
<rect width="56" height="56" fill="white"/>
</clipPath>
</defs>
</svg>
