<svg width="56" height="56" viewBox="0 0 56 56" fill="none" xmlns="http://www.w3.org/2000/svg">
<g clip-path="url(#clip0_44_4689)">
<g clip-path="url(#clip1_44_4689)">
<g clip-path="url(#clip2_44_4689)">
<path d="M40 0H16C7.16344 0 0 7.16344 0 16V40C0 48.8366 7.16344 56 16 56H40C48.8366 56 56 48.8366 56 40V16C56 7.16344 48.8366 0 40 0Z" fill="#F9F9F9"/>
<mask id="mask0_44_4689" style="mask-type:luminance" maskUnits="userSpaceOnUse" x="12" y="12" width="32" height="32">
<path d="M44 12H12V44H44V12Z" fill="white"/>
</mask>
<g mask="url(#mask0_44_4689)">
<path d="M16 22.6667H40" stroke="#080B1A" stroke-width="2" stroke-linecap="round" stroke-linejoin="round"/>
<path d="M24 28H21.3333" stroke="#080B1A" stroke-width="2" stroke-linecap="round" stroke-linejoin="round"/>
<path d="M25.3333 36H20C18.9392 36 17.9217 35.5786 17.1716 34.8284C16.4215 34.0783 16 33.0608 16 32V21.3334C16 20.2726 16.4215 19.2551 17.1716 18.505C17.9217 17.7548 18.9392 17.3334 20 17.3334H36C37.0608 17.3334 38.0783 17.7548 38.8284 18.505C39.5785 19.2551 40 20.2726 40 21.3334V26.6667" stroke="#080B1A" stroke-width="2" stroke-linecap="round" stroke-linejoin="round"/>
<path d="M35.6986 32.21L36 32.5162L36.3015 32.2099C36.5731 31.9324 36.8974 31.7119 37.2552 31.5615C37.6131 31.411 37.9975 31.3334 38.3858 31.3334C38.774 31.3334 39.1584 31.411 39.5163 31.5615C39.8742 31.7119 40.1984 31.9324 40.47 32.2099C41.0235 32.7754 41.3334 33.5351 41.3334 34.3263C41.3334 35.1175 41.0235 35.8772 40.47 36.4426L37.6499 39.3062C37.435 39.5258 37.1783 39.7003 36.895 39.8195C36.6116 39.9387 36.3074 40 36 40C35.6927 40 35.3884 39.9387 35.1051 39.8195C34.8218 39.7003 34.5651 39.5258 34.35 39.3062L31.53 36.4427C30.9766 35.8772 30.6667 35.1175 30.6667 34.3263C30.6667 33.5351 30.9766 32.7755 31.53 32.21C31.8016 31.9324 32.1259 31.712 32.4838 31.5615C32.8416 31.411 33.226 31.3334 33.6143 31.3334C34.0026 31.3334 34.387 31.411 34.7448 31.5615C35.1027 31.712 35.427 31.9324 35.6986 32.21Z" stroke="#080B1A" stroke-width="2" stroke-linecap="round" stroke-linejoin="round"/>
</g>
</g>
</g>
</g>
<defs>
<clipPath id="clip0_44_4689">
<rect width="56" height="56" fill="white"/>
</clipPath>
<clipPath id="clip1_44_4689">
<rect width="56" height="56" fill="white"/>
</clipPath>
<clipPath id="clip2_44_4689">
<rect width="56" height="56" fill="white"/>
</clipPath>
</defs>
</svg>
